<svg xmlns="http://www.w3.org/2000/svg" width="110" height="195" fill="none"><mask id="b" width="110" height="195" x="0" y="0" maskUnits="userSpaceOnUse" style="mask-type:alpha"><path fill="#C3EFFE" d="M108.455.772a.772.772 0 1 0 1.544 0 .772.772 0 0 0-1.544 0m0 7.719a.772.772 0 1 0 1.544 0 .772.772 0 0 0-1.544 0m0 7.719a.772.772 0 1 0 1.544 0 .772.772 0 0 0-1.544 0M100.728.772a.772.772 0 1 0 1.545-.001.772.772 0 0 0-1.545 0Zm0 7.719a.772.772 0 1 0 1.545-.001.772.772 0 0 0-1.545.001m0 7.719a.772.772 0 1 0 1.545 0 .772.772 0 0 0-1.545 0M93.002.772a.772.772 0 1 0 1.544 0 .772.772 0 0 0-1.544 0m0 7.719a.772.772 0 1 0 1.544 0 .772.772 0 0 0-1.544 0m0 7.719a.772.772 0 1 0 1.544 0 .772.772 0 0 0-1.544 0M85.275.772A.772.772 0 1 0 86.82.77a.772.772 0 0 0-1.545 0Zm0 7.719a.772.772 0 1 0 1.545 0 .772.772 0 0 0-1.545 0m0 7.719a.772.772 0 1 0 1.545 0 .772.772 0 0 0-1.545 0M77.549.772a.772.772 0 1 0 1.544 0 .772.772 0 0 0-1.544 0m0 7.719a.772.772 0 1 0 1.544 0 .772.772 0 0 0-1.544 0m0 7.719a.772.772 0 1 0 1.544 0 .772.772 0 0 0-1.544 0M69.822.772a.772.772 0 1 0 1.544 0 .772.772 0 0 0-1.544 0m0 7.719a.772.772 0 1 0 1.544 0 .772.772 0 0 0-1.544 0m0 7.719a.772.772 0 1 0 1.545 0 .772.772 0 0 0-1.545 0M62.095.772a.772.772 0 1 0 1.545 0 .772.772 0 0 0-1.545 0m0 7.719a.772.772 0 1 0 1.545 0 .772.772 0 0 0-1.545 0m0 7.719a.772.772 0 1 0 1.545 0 .772.772 0 0 0-1.545 0M54.369.772a.772.772 0 1 0 1.544 0 .772.772 0 0 0-1.544 0m0 7.719a.772.772 0 1 0 1.544 0 .772.772 0 0 0-1.544 0m0 7.719a.772.772 0 1 0 1.544 0 .772.772 0 0 0-1.544 0M46.642.772a.772.772 0 1 0 1.545 0 .772.772 0 0 0-1.545 0m0 7.719a.772.772 0 1 0 1.545 0 .772.772 0 0 0-1.545 0m0 7.719a.772.772 0 1 0 1.545 0 .772.772 0 0 0-1.545 0M38.916.772a.772.772 0 1 0 1.544 0 .772.772 0 0 0-1.544 0m0 7.719a.772.772 0 1 0 1.544 0 .772.772 0 0 0-1.544 0m0 7.719a.772.772 0 1 0 1.544 0 .772.772 0 0 0-1.544 0M31.19.772a.772.772 0 1 0 1.544 0 .772.772 0 0 0-1.545 0Zm0 7.719a.772.772 0 1 0 1.544 0 .772.772 0 0 0-1.545 0Zm0 7.719a.772.772 0 1 0 1.544 0 .772.772 0 0 0-1.545 0ZM23.463.772a.772.772 0 1 0 1.544 0 .772.772 0 0 0-1.544 0m0 7.719a.772.772 0 1 0 1.544 0 .772.772 0 0 0-1.544 0m0 7.719a.772.772 0 1 0 1.544 0 .772.772 0 0 0-1.544 0M15.736.772a.772.772 0 1 0 1.545 0 .772.772 0 0 0-1.545 0m0 7.719a.772.772 0 1 0 1.545 0 .772.772 0 0 0-1.545 0m0 7.719a.772.772 0 1 0 1.545 0 .772.772 0 0 0-1.545 0M8.01.772a.772.772 0 1 0 1.544 0 .772.772 0 0 0-1.544 0m0 7.719a.772.772 0 1 0 1.544 0 .772.772 0 0 0-1.544 0m0 7.719a.772.772 0 1 0 1.544 0 .772.772 0 0 0-1.544 0M.283.772a.772.772 0 1 0 1.545 0 .772.772 0 0 0-1.545 0m0 7.719a.772.772 0 1 0 1.545 0 .772.772 0 0 0-1.545 0m0 7.719a.772.772 0 1 0 1.544 0 .772.772 0 0 0-1.544 0m108.172 7.72a.772.772 0 1 0 1.544-.001.772.772 0 0 0-1.544 0Zm0 7.718a.772.772 0 1 0 1.544 0 .772.772 0 0 0-1.544 0m0 7.719a.772.772 0 1 0 1.544 0 .772.772 0 0 0-1.544 0m0 7.719a.772.772 0 1 0 1.544 0 .772.772 0 0 0-1.544 0m0 7.719a.772.772 0 1 0 1.544 0 .772.772 0 0 0-1.544 0m-7.727-30.875a.772.772 0 1 0 1.545-.002.772.772 0 0 0-1.545.001Zm0 7.718a.772.772 0 1 0 1.545 0 .772.772 0 0 0-1.545 0m0 7.719a.772.772 0 1 0 1.545 0 .772.772 0 0 0-1.545 0m0 7.719a.772.772 0 1 0 1.545 0 .772.772 0 0 0-1.545 0m0 7.719a.772.772 0 1 0 1.545 0 .772.772 0 0 0-1.545 0M93.002 23.93a.772.772 0 1 0 1.544-.002.772.772 0 0 0-1.544.001Zm0 7.718a.772.772 0 1 0 1.544 0 .772.772 0 0 0-1.544 0m0 7.719a.772.772 0 1 0 1.544 0 .772.772 0 0 0-1.544 0m0 7.719a.772.772 0 1 0 1.544 0 .772.772 0 0 0-1.544 0m0 7.719a.772.772 0 1 0 1.544 0 .772.772 0 0 0-1.544 0M85.275 23.93a.772.772 0 1 0 1.545-.002.772.772 0 0 0-1.545.001Zm0 7.718a.772.772 0 1 0 1.545 0 .772.772 0 0 0-1.545 0m0 7.719a.772.772 0 1 0 1.545 0 .772.772 0 0 0-1.545 0m0 7.719a.772.772 0 1 0 1.545 0 .772.772 0 0 0-1.545 0m0 7.719a.772.772 0 1 0 1.545 0 .772.772 0 0 0-1.545 0M77.549 23.93a.772.772 0 1 0 1.544-.002.772.772 0 0 0-1.544.001Zm0 7.718a.772.772 0 1 0 1.544 0 .772.772 0 0 0-1.544 0m0 7.719a.772.772 0 1 0 1.544 0 .772.772 0 0 0-1.544 0m0 7.719a.772.772 0 1 0 1.544 0 .772.772 0 0 0-1.544 0m0 7.719a.772.772 0 1 0 1.544 0 .772.772 0 0 0-1.544 0M69.822 23.93a.772.772 0 1 0 1.545-.002.772.772 0 0 0-1.545.001Zm0 7.718a.772.772 0 1 0 1.545 0 .772.772 0 0 0-1.545 0m0 7.719a.772.772 0 1 0 1.545 0 .772.772 0 0 0-1.545 0m0 7.719a.772.772 0 1 0 1.545 0 .772.772 0 0 0-1.545 0m0 7.719a.772.772 0 1 0 1.545 0 .772.772 0 0 0-1.545 0M62.095 23.93a.772.772 0 1 0 1.545-.002.772.772 0 0 0-1.545.001Zm0 7.718a.772.772 0 1 0 1.545 0 .772.772 0 0 0-1.545 0m0 7.719a.772.772 0 1 0 1.545 0 .772.772 0 0 0-1.545 0m0 7.719a.772.772 0 1 0 1.545 0 .772.772 0 0 0-1.545 0m0 7.719a.772.772 0 1 0 1.545 0 .772.772 0 0 0-1.545 0M54.369 23.93a.772.772 0 1 0 1.544-.002.772.772 0 0 0-1.544.001Zm0 7.718a.772.772 0 1 0 1.544 0 .772.772 0 0 0-1.544 0m0 7.719a.772.772 0 1 0 1.544 0 .772.772 0 0 0-1.544 0m0 7.719a.772.772 0 1 0 1.544 0 .772.772 0 0 0-1.544 0m0 7.719a.772.772 0 1 0 1.544 0 .772.772 0 0 0-1.544 0M46.642 23.93a.772.772 0 1 0 1.545-.002.772.772 0 0 0-1.545.001Zm0 7.718a.772.772 0 1 0 1.545 0 .772.772 0 0 0-1.545 0m0 7.719a.772.772 0 1 0 1.545 0 .772.772 0 0 0-1.545 0m0 7.719a.772.772 0 1 0 1.545 0 .772.772 0 0 0-1.545 0m0 7.719a.772.772 0 1 0 1.545 0 .772.772 0 0 0-1.545 0M38.916 23.93a.772.772 0 1 0 1.544-.002.772.772 0 0 0-1.544.001Zm0 7.718a.772.772 0 1 0 1.544 0 .772.772 0 0 0-1.544 0m0 7.719a.772.772 0 1 0 1.544 0 .772.772 0 0 0-1.544 0m0 7.719a.772.772 0 1 0 1.544 0 .772.772 0 0 0-1.544 0m0 7.719a.772.772 0 1 0 1.544 0 .772.772 0 0 0-1.544 0M31.19 23.93a.772.772 0 1 0 1.544-.002.772.772 0 0 0-1.545.001Zm0 7.718a.772.772 0 1 0 1.544 0 .772.772 0 0 0-1.545 0Zm0 7.719a.772.772 0 1 0 1.544 0 .772.772 0 0 0-1.545 0Zm0 7.719a.772.772 0 1 0 1.544 0 .772.772 0 0 0-1.545 0Zm0 7.719a.772.772 0 1 0 1.544 0 .772.772 0 0 0-1.545 0ZM23.463 23.93a.772.772 0 1 0 1.544-.002.772.772 0 0 0-1.544.001Zm0 7.718a.772.772 0 1 0 1.544 0 .772.772 0 0 0-1.544 0m0 7.719a.772.772 0 1 0 1.544 0 .772.772 0 0 0-1.544 0m0 7.719a.772.772 0 1 0 1.544 0 .772.772 0 0 0-1.544 0m0 7.719a.772.772 0 1 0 1.544 0 .772.772 0 0 0-1.544 0M15.736 23.93a.772.772 0 1 0 1.545-.002.772.772 0 0 0-1.545.001Zm0 7.718a.772.772 0 1 0 1.545 0 .772.772 0 0 0-1.545 0m0 7.719a.772.772 0 1 0 1.545 0 .772.772 0 0 0-1.545 0m0 7.719a.772.772 0 1 0 1.545 0 .772.772 0 0 0-1.545 0m0 7.719a.772.772 0 1 0 1.545 0 .772.772 0 0 0-1.545 0M8.01 23.93a.772.772 0 1 0 1.544-.002.772.772 0 0 0-1.544.001Zm0 7.718a.772.772 0 1 0 1.544 0 .772.772 0 0 0-1.544 0m0 7.719a.772.772 0 1 0 1.544 0 .772.772 0 0 0-1.544 0m0 7.719a.772.772 0 1 0 1.544 0 .772.772 0 0 0-1.544 0m0 7.719a.772.772 0 1 0 1.544 0 .772.772 0 0 0-1.544 0M.283 23.93a.772.772 0 1 0 1.545-.002.772.772 0 0 0-1.545.001Zm0 7.718a.772.772 0 1 0 1.545 0 .772.772 0 0 0-1.545 0m0 7.719a.772.772 0 1 0 1.545 0 .772.772 0 0 0-1.545 0m0 7.719a.772.772 0 1 0 1.545 0 .772.772 0 0 0-1.545 0m0 7.719a.772.772 0 1 0 1.545 0 .772.772 0 0 0-1.545 0m108.172 7.72a.772.772 0 1 0 1.544-.001.772.772 0 0 0-1.544 0Zm0 7.718a.772.772 0 1 0 1.544 0 .772.772 0 0 0-1.544 0m0 7.72a.772.772 0 1 0 1.544-.001.772.772 0 0 0-1.544 0Zm0 7.719a.772.772 0 1 0 1.544 0 .772.772 0 0 0-1.544 0m0 7.718a.772.772 0 1 0 1.545 0 .772.772 0 0 0-1.545 0m-7.727-30.875a.772.772 0 1 0 1.545-.002.772.772 0 0 0-1.545.002m0 7.718a.772.772 0 1 0 1.545 0 .772.772 0 0 0-1.545 0m0 7.72a.772.772 0 1 0 1.545-.001.772.772 0 0 0-1.545 0Zm0 7.719a.772.772 0 1 0 1.545-.001.772.772 0 0 0-1.545 0Zm0 7.718a.772.772 0 1 0 1.545 0 .772.772 0 0 0-1.545 0m-7.726-30.875a.772.772 0 1 0 1.544-.001.772.772 0 0 0-1.544 0Zm0 7.718a.772.772 0 1 0 1.544 0 .772.772 0 0 0-1.544 0m0 7.72a.772.772 0 1 0 1.544-.001.772.772 0 0 0-1.544 0Zm0 7.719a.772.772 0 1 0 1.544-.001.772.772 0 0 0-1.544 0Zm0 7.718a.772.772 0 1 0 1.544 0 .772.772 0 0 0-1.544 0m-7.727-30.875a.772.772 0 1 0 1.545-.001.772.772 0 0 0-1.545 0Zm0 7.718a.772.772 0 1 0 1.545 0 .772.772 0 0 0-1.545 0m0 7.72a.772.772 0 1 0 1.545-.001.772.772 0 0 0-1.545 0Zm0 7.719a.772.772 0 1 0 1.545-.001.772.772 0 0 0-1.545 0Zm0 7.718a.772.772 0 1 0 1.545 0 .772.772 0 0 0-1.545 0m-7.726-30.875a.772.772 0 1 0 1.544-.001.772.772 0 0 0-1.544 0Zm0 7.718a.772.772 0 1 0 1.544 0 .772.772 0 0 0-1.544 0m0 7.72a.772.772 0 1 0 1.544-.001.772.772 0 0 0-1.544 0Zm0 7.719a.772.772 0 1 0 1.544-.001.772.772 0 0 0-1.544 0Zm0 7.718a.772.772 0 1 0 1.544 0 .772.772 0 0 0-1.544 0m-7.727-30.875a.772.772 0 1 0 1.545-.001.772.772 0 0 0-1.545 0Zm0 7.718a.772.772 0 1 0 1.544 0 .772.772 0 0 0-1.544 0m0 7.72a.772.772 0 1 0 1.545-.001.772.772 0 0 0-1.545 0Zm0 7.719a.772.772 0 1 0 1.545-.001.772.772 0 0 0-1.545 0Zm0 7.718a.772.772 0 1 0 1.545 0 .772.772 0 0 0-1.545 0m-7.727-30.875a.772.772 0 1 0 1.545-.001.772.772 0 0 0-1.545 0Zm0 7.718a.772.772 0 1 0 1.545 0 .772.772 0 0 0-1.545 0m0 7.72a.772.772 0 1 0 1.545-.001.772.772 0 0 0-1.545 0Zm0 7.719a.772.772 0 1 0 1.545-.001.772.772 0 0 0-1.545 0Zm0 7.718a.772.772 0 1 0 1.545 0 .772.772 0 0 0-1.545 0m-7.726-30.875a.772.772 0 1 0 1.544-.001.772.772 0 0 0-1.544 0Zm0 7.718a.772.772 0 1 0 1.544 0 .772.772 0 0 0-1.544 0m0 7.72a.772.772 0 1 0 1.544-.001.772.772 0 0 0-1.544 0Zm0 7.719a.772.772 0 1 0 1.544-.001.772.772 0 0 0-1.544 0Zm0 7.718a.772.772 0 1 0 1.545 0 .772.772 0 0 0-1.545 0m-7.727-30.875a.772.772 0 1 0 1.545-.001.772.772 0 0 0-1.545 0Zm0 7.718a.772.772 0 1 0 1.545 0 .772.772 0 0 0-1.545 0m0 7.72a.772.772 0 1 0 1.545-.001.772.772 0 0 0-1.545 0Zm0 7.719a.772.772 0 1 0 1.545-.001.772.772 0 0 0-1.545 0Zm0 7.718a.772.772 0 1 0 1.545 0 .772.772 0 0 0-1.545 0m-7.726-30.875a.772.772 0 1 0 1.544-.001.772.772 0 0 0-1.544 0Zm0 7.718a.772.772 0 1 0 1.544 0 .772.772 0 0 0-1.544 0m0 7.72a.772.772 0 1 0 1.544-.001.772.772 0 0 0-1.544 0Zm0 7.719a.772.772 0 1 0 1.544-.001.772.772 0 0 0-1.544 0Zm0 7.718a.772.772 0 1 0 1.544 0 .772.772 0 0 0-1.544 0M31.19 62.525a.772.772 0 1 0 1.544-.001.772.772 0 0 0-1.545 0Zm0 7.718a.772.772 0 1 0 1.544 0 .772.772 0 0 0-1.545 0Zm0 7.72a.772.772 0 1 0 1.544-.001.772.772 0 0 0-1.545 0Zm0 7.719a.772.772 0 1 0 1.544-.001.772.772 0 0 0-1.545 0Zm0 7.718a.772.772 0 1 0 1.544 0 .772.772 0 0 0-1.545 0Zm-7.727-30.875a.772.772 0 1 0 1.544-.001.772.772 0 0 0-1.544 0Zm0 7.718a.772.772 0 1 0 1.544 0 .772.772 0 0 0-1.544 0m0 7.72a.772.772 0 1 0 1.544-.001.772.772 0 0 0-1.544 0Zm0 7.719a.772.772 0 1 0 1.544-.001.772.772 0 0 0-1.544 0Zm0 7.718a.772.772 0 1 0 1.544 0 .772.772 0 0 0-1.544 0m-7.727-30.875a.772.772 0 1 0 1.545-.001.772.772 0 0 0-1.545 0Zm0 7.718a.772.772 0 1 0 1.545 0 .772.772 0 0 0-1.545 0m0 7.72a.772.772 0 1 0 1.545-.001.772.772 0 0 0-1.545 0Zm0 7.719a.772.772 0 1 0 1.545-.001.772.772 0 0 0-1.545 0Zm0 7.718a.772.772 0 1 0 1.545 0 .772.772 0 0 0-1.545 0M8.01 62.525a.772.772 0 1 0 1.544-.001.772.772 0 0 0-1.544 0Zm0 7.718a.772.772 0 1 0 1.544 0 .772.772 0 0 0-1.544 0m0 7.72a.772.772 0 1 0 1.544-.001.772.772 0 0 0-1.544 0Zm0 7.719a.772.772 0 1 0 1.544-.001.772.772 0 0 0-1.544 0Zm0 7.718a.772.772 0 1 0 1.544 0 .772.772 0 0 0-1.544 0M.283 62.525a.772.772 0 1 0 1.545-.001.772.772 0 0 0-1.545 0Zm0 7.718a.772.772 0 1 0 1.545 0 .772.772 0 0 0-1.545 0m0 7.72a.772.772 0 1 0 1.545-.001.772.772 0 0 0-1.545 0Zm0 7.719a.772.772 0 1 0 1.545-.001.772.772 0 0 0-1.545 0Zm0 7.718a.772.772 0 1 0 1.545 0 .772.772 0 0 0-1.545 0m108.172 7.72a.772.772 0 1 0 1.545 0 .772.772 0 0 0-1.545 0m0 7.719a.772.772 0 1 0 1.545 0 .772.772 0 0 0-1.545 0m0 7.719a.772.772 0 1 0 1.545 0 .772.772 0 0 0-1.545 0m0 7.719a.772.772 0 1 0 1.545 0 .772.772 0 0 0-1.545 0m0 7.719a.772.772 0 1 0 1.545 0 .772.772 0 0 0-1.545 0m-7.727-30.876a.773.773 0 1 0 1.545-.001.773.773 0 0 0-1.545.001m0 7.719a.773.773 0 1 0 1.545-.001.773.773 0 0 0-1.545.001m0 7.719a.773.773 0 1 0 1.545-.001.773.773 0 0 0-1.545.001m0 7.719a.773.773 0 1 0 1.545-.001.773.773 0 0 0-1.545.001m0 7.719a.773.773 0 1 0 1.545-.001.773.773 0 0 0-1.545.001m-7.726-30.876a.773.773 0 1 0 1.545-.001.773.773 0 0 0-1.545.001m0 7.719a.773.773 0 1 0 1.545-.001.773.773 0 0 0-1.545.001m0 7.719a.773.773 0 1 0 1.545-.001.773.773 0 0 0-1.545.001m0 7.719a.773.773 0 1 0 1.545-.001.773.773 0 0 0-1.545.001m0 7.719a.773.773 0 1 0 1.545-.001.773.773 0 0 0-1.545.001m-7.727-30.876a.773.773 0 1 0 1.545-.001.773.773 0 0 0-1.545.001m0 7.719a.773.773 0 1 0 1.545-.001.773.773 0 0 0-1.545.001m0 7.719a.773.773 0 1 0 1.545-.001.773.773 0 0 0-1.545.001m0 7.719a.773.773 0 1 0 1.545-.001.773.773 0 0 0-1.545.001m0 7.719a.773.773 0 1 0 1.545-.001.773.773 0 0 0-1.545.001m-7.726-30.876a.773.773 0 1 0 1.545-.001.773.773 0 0 0-1.545.001m0 7.719a.773.773 0 1 0 1.545-.001.773.773 0 0 0-1.545.001m0 7.719a.773.773 0 1 0 1.545-.001.773.773 0 0 0-1.545.001m0 7.719a.773.773 0 1 0 1.545-.001.773.773 0 0 0-1.545.001m0 7.719a.773.773 0 1 0 1.545-.001.773.773 0 0 0-1.545.001m-7.727-30.876a.773.773 0 1 0 1.545-.001.773.773 0 0 0-1.545.001m0 7.719a.773.773 0 1 0 1.545-.001.773.773 0 0 0-1.545.001m0 7.719a.773.773 0 1 0 1.545-.001.773.773 0 0 0-1.545.001m0 7.719a.773.773 0 1 0 1.545-.001.773.773 0 0 0-1.545.001m0 7.719a.773.773 0 1 0 1.545-.001.773.773 0 0 0-1.545.001m-7.727-30.876a.773.773 0 1 0 1.546-.001.773.773 0 0 0-1.546.001m0 7.719a.773.773 0 1 0 1.546-.001.773.773 0 0 0-1.546.001m0 7.719a.773.773 0 1 0 1.546-.001.773.773 0 0 0-1.546.001m0 7.719a.773.773 0 1 0 1.546-.001.773.773 0 0 0-1.546.001m0 7.719a.773.773 0 1 0 1.546-.001.773.773 0 0 0-1.546.001m-7.726-30.876a.773.773 0 1 0 1.545-.001.773.773 0 0 0-1.545.001m0 7.719a.773.773 0 1 0 1.545-.001.773.773 0 0 0-1.545.001m0 7.719a.773.773 0 1 0 1.545-.001.773.773 0 0 0-1.545.001m0 7.719a.773.773 0 1 0 1.545-.001.773.773 0 0 0-1.545.001m0 7.719a.773.773 0 1 0 1.545-.001.773.773 0 0 0-1.545.001m-7.727-30.876a.773.773 0 1 0 1.545-.001.773.773 0 0 0-1.545.001m0 7.719a.773.773 0 1 0 1.545-.001.773.773 0 0 0-1.545.001m0 7.719a.773.773 0 1 0 1.545-.001.773.773 0 0 0-1.545.001m0 7.719a.773.773 0 1 0 1.545-.001.773.773 0 0 0-1.545.001m0 7.719a.773.773 0 1 0 1.545-.001.773.773 0 0 0-1.545.001m-7.726-30.876a.773.773 0 1 0 1.545-.001.773.773 0 0 0-1.545.001m0 7.719a.773.773 0 1 0 1.545-.001.773.773 0 0 0-1.545.001m0 7.719a.773.773 0 1 0 1.545-.001.773.773 0 0 0-1.545.001m0 7.719a.773.773 0 1 0 1.545-.001.773.773 0 0 0-1.545.001m0 7.719a.773.773 0 1 0 1.545-.001.773.773 0 0 0-1.545.001M31.19 101.12a.773.773 0 1 0 1.544-.001.773.773 0 0 0-1.545.001Zm0 7.719a.773.773 0 1 0 1.544-.001.773.773 0 0 0-1.545.001Zm0 7.719a.773.773 0 1 0 1.544-.001.773.773 0 0 0-1.545.001Zm0 7.719a.773.773 0 1 0 1.544-.001.773.773 0 0 0-1.545.001Zm0 7.719a.773.773 0 1 0 1.544-.001.773.773 0 0 0-1.545.001Zm-7.727-30.876a.773.773 0 1 0 1.545-.001.773.773 0 0 0-1.545.001m0 7.719a.773.773 0 1 0 1.545-.001.773.773 0 0 0-1.545.001m0 7.719a.773.773 0 1 0 1.545-.001.773.773 0 0 0-1.545.001m0 7.719a.773.773 0 1 0 1.545-.001.773.773 0 0 0-1.545.001m0 7.719a.773.773 0 1 0 1.545-.001.773.773 0 0 0-1.545.001m-7.727-30.876a.773.773 0 1 0 1.545-.001.773.773 0 0 0-1.545.001m0 7.719a.773.773 0 1 0 1.545-.001.773.773 0 0 0-1.545.001m0 7.719a.773.773 0 1 0 1.545-.001.773.773 0 0 0-1.545.001m0 7.719a.773.773 0 1 0 1.545-.001.773.773 0 0 0-1.545.001m0 7.719a.773.773 0 1 0 1.545-.001.773.773 0 0 0-1.545.001M8.01 101.12a.773.773 0 1 0 1.545-.001.773.773 0 0 0-1.545.001m0 7.719a.773.773 0 1 0 1.545-.001.773.773 0 0 0-1.545.001m0 7.719a.773.773 0 1 0 1.545-.001.773.773 0 0 0-1.545.001m0 7.719a.773.773 0 1 0 1.545-.001.773.773 0 0 0-1.545.001m0 7.719a.773.773 0 1 0 1.545-.001.773.773 0 0 0-1.545.001M.283 101.12a.773.773 0 1 0 1.545-.001.773.773 0 0 0-1.545.001m0 7.719a.773.773 0 1 0 1.545-.001.773.773 0 0 0-1.545.001m0 7.719a.773.773 0 1 0 1.545-.001.773.773 0 0 0-1.545.001m0 7.719a.773.773 0 1 0 1.545-.001.773.773 0 0 0-1.545.001m0 7.719a.773.773 0 1 0 1.545-.001.773.773 0 0 0-1.545.001m108.172 7.719a.772.772 0 1 0 1.545 0 .772.772 0 0 0-1.545 0m0 7.719a.772.772 0 1 0 1.544 0 .772.772 0 0 0-1.544 0m0 7.719a.772.772 0 1 0 1.544 0 .772.772 0 0 0-1.544 0m0 7.719a.772.772 0 1 0 1.544 0 .772.772 0 0 0-1.544 0m0 7.719a.772.772 0 1 0 1.544 0 .772.772 0 0 0-1.544 0m-7.727-30.876a.773.773 0 1 0 1.545-.001.773.773 0 0 0-1.545.001m0 7.719a.772.772 0 1 0 1.544 0 .772.772 0 0 0-1.544 0m0 7.719a.772.772 0 1 0 1.544 0 .772.772 0 0 0-1.544 0m0 7.719a.772.772 0 1 0 1.544 0 .772.772 0 0 0-1.544 0m0 7.719a.772.772 0 1 0 1.544 0 .772.772 0 0 0-1.544 0m-7.726-30.876a.773.773 0 1 0 1.545-.001.773.773 0 0 0-1.545.001m0 7.719a.772.772 0 1 0 1.543 0 .772.772 0 0 0-1.543 0m0 7.719a.772.772 0 1 0 1.543 0 .772.772 0 0 0-1.543 0m0 7.719a.772.772 0 1 0 1.543 0 .772.772 0 0 0-1.543 0m0 7.719a.772.772 0 1 0 1.543 0 .772.772 0 0 0-1.543 0m-7.727-30.876a.773.773 0 1 0 1.545-.001.773.773 0 0 0-1.545.001m0 7.719a.772.772 0 1 0 1.544 0 .772.772 0 0 0-1.544 0m0 7.719a.772.772 0 1 0 1.544 0 .772.772 0 0 0-1.544 0m0 7.719a.772.772 0 1 0 1.544 0 .772.772 0 0 0-1.544 0m0 7.719a.772.772 0 1 0 1.544 0 .772.772 0 0 0-1.544 0m-7.726-30.876a.773.773 0 1 0 1.545-.001.773.773 0 0 0-1.545.001m0 7.719a.772.772 0 1 0 1.543 0 .772.772 0 0 0-1.543 0m0 7.719a.772.772 0 1 0 1.543 0 .772.772 0 0 0-1.543 0m0 7.719a.772.772 0 1 0 1.543 0 .772.772 0 0 0-1.543 0m0 7.719a.772.772 0 1 0 1.543 0 .772.772 0 0 0-1.543 0m-7.727-30.876a.773.773 0 1 0 1.545-.001.773.773 0 0 0-1.545.001m0 7.719a.772.772 0 1 0 1.544 0 .772.772 0 0 0-1.544 0m0 7.719a.772.772 0 1 0 1.544 0 .772.772 0 0 0-1.544 0m0 7.719a.772.772 0 1 0 1.544 0 .772.772 0 0 0-1.544 0m0 7.719a.772.772 0 1 0 1.544 0 .772.772 0 0 0-1.544 0m-7.727-30.876a.773.773 0 1 0 1.546-.001.773.773 0 0 0-1.546.001m0 7.719a.772.772 0 1 0 1.544 0 .772.772 0 0 0-1.544 0m0 7.719a.772.772 0 1 0 1.544 0 .772.772 0 0 0-1.544 0m0 7.719a.772.772 0 1 0 1.544 0 .772.772 0 0 0-1.544 0m0 7.719a.772.772 0 1 0 1.544 0 .772.772 0 0 0-1.544 0m-7.726-30.876a.773.773 0 1 0 1.545-.001.773.773 0 0 0-1.545.001m0 7.719a.772.772 0 1 0 1.544 0 .772.772 0 0 0-1.544 0m0 7.719a.772.772 0 1 0 1.544 0 .772.772 0 0 0-1.544 0m0 7.719a.772.772 0 1 0 1.544 0 .772.772 0 0 0-1.544 0m0 7.719a.772.772 0 1 0 1.544 0 .772.772 0 0 0-1.544 0m-7.727-30.876a.773.773 0 1 0 1.545-.001.773.773 0 0 0-1.545.001m0 7.719a.772.772 0 1 0 1.544 0 .772.772 0 0 0-1.544 0m0 7.719a.772.772 0 1 0 1.544 0 .772.772 0 0 0-1.544 0m0 7.719a.772.772 0 1 0 1.544 0 .772.772 0 0 0-1.544 0m0 7.719a.772.772 0 1 0 1.544 0 .772.772 0 0 0-1.544 0m-7.726-30.876a.773.773 0 1 0 1.545-.001.773.773 0 0 0-1.545.001m0 7.719a.772.772 0 1 0 1.544 0 .772.772 0 0 0-1.544 0m0 7.719a.772.772 0 1 0 1.544 0 .772.772 0 0 0-1.544 0m0 7.719a.772.772 0 1 0 1.544 0 .772.772 0 0 0-1.544 0m0 7.719a.772.772 0 1 0 1.544 0 .772.772 0 0 0-1.544 0m-7.726-30.876a.773.773 0 1 0 1.544-.001.773.773 0 0 0-1.545.001Zm0 7.719a.772.772 0 1 0 1.543 0 .772.772 0 0 0-1.544 0Zm0 7.719a.772.772 0 1 0 1.543 0 .772.772 0 0 0-1.544 0Zm0 7.719a.772.772 0 1 0 1.543 0 .772.772 0 0 0-1.544 0Zm0 7.719a.772.772 0 1 0 1.543 0 .772.772 0 0 0-1.544 0Zm-7.727-30.876a.773.773 0 1 0 1.545-.001.773.773 0 0 0-1.545.001m0 7.719a.772.772 0 1 0 1.543 0 .772.772 0 0 0-1.543 0m0 7.719a.772.772 0 1 0 1.543 0 .772.772 0 0 0-1.543 0m0 7.719a.772.772 0 1 0 1.543 0 .772.772 0 0 0-1.543 0m0 7.719a.772.772 0 1 0 1.543 0 .772.772 0 0 0-1.543 0m-7.727-30.876a.773.773 0 1 0 1.545-.001.773.773 0 0 0-1.545.001m0 7.719a.772.772 0 1 0 1.544 0 .772.772 0 0 0-1.544 0m0 7.719a.772.772 0 1 0 1.544 0 .772.772 0 0 0-1.544 0m0 7.719a.772.772 0 1 0 1.544 0 .772.772 0 0 0-1.544 0m0 7.719a.772.772 0 1 0 1.544 0 .772.772 0 0 0-1.544 0M8.01 139.715a.773.773 0 1 0 1.545-.001.773.773 0 0 0-1.545.001m0 7.719a.772.772 0 1 0 1.543 0 .772.772 0 0 0-1.543 0m0 7.719a.772.772 0 1 0 1.543 0 .772.772 0 0 0-1.543 0m0 7.719a.772.772 0 1 0 1.543 0 .772.772 0 0 0-1.543 0m0 7.719a.772.772 0 1 0 1.543 0 .772.772 0 0 0-1.543 0M.283 139.715a.773.773 0 1 0 1.545-.001.773.773 0 0 0-1.545.001m0 7.719a.772.772 0 1 0 1.544 0 .772.772 0 0 0-1.544 0m0 7.719a.772.772 0 1 0 1.544 0 .772.772 0 0 0-1.544 0m0 7.719a.772.772 0 1 0 1.544 0 .772.772 0 0 0-1.544 0m0 7.719a.772.772 0 1 0 1.544 0 .772.772 0 0 0-1.544 0m108.172 7.72a.772.772 0 1 0 1.543-.001.772.772 0 0 0-1.543.001m0 7.719a.772.772 0 1 0 1.543-.001.772.772 0 0 0-1.543.001m0 7.719a.772.772 0 1 0 1.545 0 .772.772 0 0 0-1.545 0m-7.727-15.438a.772.772 0 1 0 1.544-.002.772.772 0 0 0-1.544.002m0 7.719a.772.772 0 1 0 1.544-.002.772.772 0 0 0-1.544.002m0 7.719a.773.773 0 1 0 1.545-.001.773.773 0 0 0-1.545.001m-7.726-15.438a.772.772 0 1 0 1.543-.001.772.772 0 0 0-1.543.001m0 7.719a.772.772 0 1 0 1.543-.001.772.772 0 0 0-1.543.001m0 7.719a.773.773 0 1 0 1.545-.001.773.773 0 0 0-1.545.001m-7.727-15.438a.772.772 0 1 0 1.544-.002.772.772 0 0 0-1.544.002m0 7.719a.772.772 0 1 0 1.544-.002.772.772 0 0 0-1.544.002m0 7.719a.773.773 0 1 0 1.545-.001.773.773 0 0 0-1.545.001m-7.726-15.438a.772.772 0 1 0 1.543-.001.772.772 0 0 0-1.543.001m0 7.719a.772.772 0 1 0 1.543-.001.772.772 0 0 0-1.543.001m0 7.719a.773.773 0 1 0 1.545-.001.773.773 0 0 0-1.545.001m-7.727-15.438a.772.772 0 1 0 1.543-.002.772.772 0 0 0-1.543.002m0 7.719a.772.772 0 1 0 1.543-.002.772.772 0 0 0-1.543.002m0 7.719a.773.773 0 1 0 1.545-.001.773.773 0 0 0-1.545.001m-7.727-15.438a.772.772 0 1 0 1.544-.001.772.772 0 0 0-1.544.001m0 7.719a.772.772 0 1 0 1.544-.001.772.772 0 0 0-1.544.001m0 7.719a.773.773 0 1 0 1.545-.001.773.773 0 0 0-1.545.001m-7.726-15.438a.772.772 0 1 0 1.543-.001.772.772 0 0 0-1.543.001m0 7.719a.772.772 0 1 0 1.543-.001.772.772 0 0 0-1.543.001m0 7.719a.773.773 0 1 0 1.545-.001.773.773 0 0 0-1.545.001m-7.727-15.438a.772.772 0 1 0 1.544-.001.772.772 0 0 0-1.544.001m0 7.719a.772.772 0 1 0 1.544-.001.772.772 0 0 0-1.544.001m0 7.719a.773.773 0 1 0 1.545-.001.773.773 0 0 0-1.545.001m-7.726-15.438a.772.772 0 1 0 1.543-.001.772.772 0 0 0-1.543.001m0 7.719a.772.772 0 1 0 1.543-.001.772.772 0 0 0-1.543.001m0 7.719a.773.773 0 1 0 1.545-.001.773.773 0 0 0-1.545.001m-7.726-15.438a.772.772 0 1 0 1.543-.001.772.772 0 0 0-1.544.001Zm0 7.719a.772.772 0 1 0 1.543-.001.772.772 0 0 0-1.544.001Zm0 7.719a.773.773 0 1 0 1.544-.001.773.773 0 0 0-1.545.001Zm-7.727-15.438a.772.772 0 1 0 1.543-.001.772.772 0 0 0-1.543.001m0 7.719a.772.772 0 1 0 1.543-.001.772.772 0 0 0-1.543.001m0 7.719a.773.773 0 1 0 1.545-.001.773.773 0 0 0-1.545.001m-7.727-15.438a.772.772 0 1 0 1.543-.001.772.772 0 0 0-1.543.001m0 7.719a.772.772 0 1 0 1.543-.001.772.772 0 0 0-1.543.001m0 7.719a.773.773 0 1 0 1.545-.001.773.773 0 0 0-1.545.001M8.01 178.311a.772.772 0 1 0 1.543-.001.772.772 0 0 0-1.543.001m0 7.719a.772.772 0 1 0 1.543-.001.772.772 0 0 0-1.543.001m0 7.719a.773.773 0 1 0 1.545-.001.773.773 0 0 0-1.545.001M.283 178.311a.772.772 0 1 0 1.543-.001.772.772 0 0 0-1.543.001m0 7.719a.772.772 0 1 0 1.543-.001.772.772 0 0 0-1.543.001m0 7.719a.773.773 0 1 0 1.545-.001.773.773 0 0 0-1.545.001"/></mask><g filter="url(#a)" mask="url(#b)"><ellipse cx="95" cy="96.5" fill="#7584D6" rx="65.5" ry="13" transform="rotate(90 95 96.5)"/></g><defs><filter id="a" width="194" height="299" x="-2" y="-53" color-interpolation-filters="sRGB" filterUnits="userSpaceOnUse"><feFlood flood-opacity="0" result="BackgroundImageFix"/><feBlend in="SourceGraphic" in2="BackgroundImageFix" result="shape"/><feGaussianBlur result="effect1_foregroundBlur_2513_1802" stdDeviation="42"/></filter></defs></svg>