<svg xmlns="http://www.w3.org/2000/svg" width="146" height="150" fill="none"><path fill="#F1F5F9" stroke="#E2E8F0" stroke-width="1.5" d="M122.75.75h-100c-12.15 0-22 9.85-22 22v104c0 12.15 9.85 22 22 22h100c12.15 0 22-9.85 22-22v-104c0-12.15-9.85-22-22-22Z"/><path fill="#E2E8F0" d="M89.75 10.981h-34a3 3 0 0 0 0 6h34a3 3 0 1 0 0-6"/><path fill="#0F172A" d="M44.75 112.981c16.569 0 30-13.431 30-30 0-16.568-13.431-30-30-30-16.568 0-30 13.432-30 30 0 16.569 13.432 30 30 30"/><path fill="#fff" d="M37.75 76.981c1-2 4-3 6-3 1-2 3-3 5-3 1 2 0 4-1 5 1 0 4 1 5 4q-3 1.5-3 6c0 3 3 5 4 5 0 1-2 4-5 4-2 0-3-1-5-1s-3 1-5 1c-3 0-6-4-6-9s4-9 5-9"/><path fill="#34A853" d="M100.75 112.981c16.569 0 30-13.431 30-30 0-16.568-13.431-30-30-30-16.568 0-30 13.432-30 30 0 16.569 13.432 30 30 30"/><path fill="#fff" d="M101.215 83.612v-3.377h8.723v7.985q-1.272 1.23-3.692 2.174-2.406.93-4.881.93-3.145 0-5.482-1.313-2.338-1.326-3.514-3.774-1.176-2.46-1.176-5.345 0-3.131 1.313-5.565 1.313-2.433 3.842-3.732 1.927-.998 4.798-.998 3.733 0 5.825 1.572 2.105 1.56 2.707 4.32l-4.02.752q-.424-1.476-1.599-2.324-1.162-.861-2.913-.861-2.652 0-4.224 1.681-1.56 1.682-1.559 4.99 0 3.57 1.586 5.36 1.587 1.777 4.156 1.777 1.272 0 2.543-.492 1.285-.506 2.202-1.217v-2.543z"/></svg>