<svg xmlns="http://www.w3.org/2000/svg" width="242" height="76" fill="none"><mask id="a" width="135" height="29" x="53.5" y="24.863" fill="#000" maskUnits="userSpaceOnUse"><path fill="#fff" d="M53.5 24.863h135v29h-135z"/><path d="M57.73 34.43q.889-2.245 2.993-4.022 2.152-1.825 5.425-1.87h17.585q1.31 0 2.198.935.936.888.936 2.198c0 1.31-.312 1.62-.936 2.245q-.888.888-2.198.888H65.961q-.888 0-1.543.748a5.1 5.1 0 0 0-1.029 1.684 5.9 5.9 0 0 0-.327 1.87v8.185q-.28 2.805-3.087 3.04-1.31 0-2.291-.842-.936-.888-.936-2.198v-8.137h.047a12.4 12.4 0 0 1 .935-4.724m40.241 15.34q-4.116-.14-6.22-1.918-2.104-1.824-3.04-4.069-.935-2.29-.935-4.63 0-2.431.888-4.676.936-2.291 3.04-4.07 2.151-1.823 5.425-1.87h17.772q1.31 0 2.198.889.936.841.935 2.058 0 1.262-.935 2.15-.888.843-2.198.843H97.41a2.68 2.68 0 0 0-1.824.701q-.748.702-1.123 1.824a7.8 7.8 0 0 0-.327 2.198q0 1.17.328 2.292.374 1.122 1.122 1.824.795.654 1.824.701h17.49q1.31 0 2.198.842.935.842.935 2.011 0 1.216-.935 2.058-.888.842-2.198.842H97.97Zm19.502-10.71q0 .889-.795 1.543-.702.609-1.777.608H99.608q-1.076 0-1.824-.608-.748-.654-.748-1.543 0-.842.748-1.497.748-.608 1.824-.608H114.9q1.076 0 1.824.655.748.609.748 1.45Zm28.97 8.231V36.02q0-1.17-1.216-1.216h-16.369q-.889.046-1.543.795a4.5 4.5 0 0 0-.982 1.684 6.6 6.6 0 0 0-.281 1.917q0 .936.281 1.918.327.934.982 1.683.654.702 1.543.702h11.973q1.31 0 2.198.935.935.889.935 2.198c0 1.309-.311 1.606-.935 2.198q-.888.936-2.198.936h-11.786q-3.273-.047-5.425-1.824-2.104-1.824-3.04-4.069a13 13 0 0 1-.888-4.724q0-2.338.935-4.583.936-2.292 3.04-4.069 2.105-1.823 6.22-1.964h19.643q1.31 0 2.245.889.934.841.982 2.151v15.714q0 1.31-.982 2.198-.936.842-2.245.842-2.806-.235-3.087-3.04m18.728 2.479q-4.116-.14-6.22-1.918-2.105-1.824-3.04-4.069-.936-2.29-.936-4.63 0-2.431.889-4.676.935-2.291 3.04-4.07 2.15-1.823 5.425-1.87h17.772q1.309 0 2.198.936.935.888.935 2.198c0 1.31-.312 1.62-.935 2.245q-.889.888-2.198.888h-17.959q-.889 0-1.544.748a4.55 4.55 0 0 0-.982 1.684 6.5 6.5 0 0 0-.28 1.87q0 .983.28 1.965.328.935.982 1.684.655.701 1.544.748h17.959q1.309 0 2.198.935.935.889.935 2.198c0 1.309-.312 1.606-.935 2.198q-.889.936-2.198.936z"/></mask><path fill="#fff" d="m57.73 34.43 2.778 1.134.006-.015.006-.015zm2.993-4.022L62.66 32.7l.004-.004zm5.425-1.87v-3h-.042zm19.783.935-2.175 2.066.053.056.056.053zm0 4.443-2.121-2.122zm-21.513 1.636 2.193 2.047.033-.035.032-.036zm-1.029 1.684-2.803-1.068-.023.06-.02.06zm-.327 10.055 2.985.299.015-.15v-.149zm-3.087 3.04v3h.125l.124-.01zm-2.291-.842-2.067 2.175.056.053.058.05zm-.936-10.335v-3h-3v3zm.047 0v3h3v-3zm3.725-3.62c.386-.975 1.06-1.923 2.139-2.834l-3.871-4.584c-1.728 1.459-3.048 3.192-3.847 5.21zm2.143-2.838c.82-.695 1.924-1.136 3.528-1.16l-.085-5.998c-2.761.039-5.274.845-7.323 2.582zm3.485-1.159h17.585v-6H66.148zm17.585 0c.04 0 .057.004.057.004l-.008-.002a.2.2 0 0 1-.051-.025l.003.003.022.022 4.35-4.133c-1.168-1.23-2.691-1.869-4.373-1.869zm.132.11.022.023.002.003-.017-.032-.009-.027s.004.017.004.057h6c0-1.682-.64-3.205-1.87-4.373zm.002.024q-.002.057-.005.064 0 .007.002-.002.004-.01-.002.001a.4.4 0 0 1-.052.06l4.242 4.243a6.06 6.06 0 0 0 1.814-4.366zm-.057.123-.02.019.023-.012q.016-.005.004-.003l-.084.006v6c1.631 0 3.139-.586 4.32-1.767zm-.077.01H65.961v6h17.772zm-17.772 0c-1.566 0-2.87.71-3.8 1.773l4.515 3.95a.8.8 0 0 1-.236.164c-.166.08-.338.113-.479.113zm-3.736 1.701a8.1 8.1 0 0 0-1.64 2.663l5.608 2.136c.124-.327.27-.547.418-.705zm-1.682 2.782a8.9 8.9 0 0 0-.481 2.82h6c0-.222.04-.524.173-.922zm-.481 2.82v8.184h6v-8.184zm.015 7.886c-.023.227-.063.34-.078.375-.011.027-.002-.005.046-.051.047-.047.08-.056.053-.046a1.4 1.4 0 0 1-.372.07l.498 5.98c1.422-.119 2.883-.599 4.03-1.73 1.148-1.13 1.651-2.583 1.793-4.001zm-.102.338c-.166 0-.236-.03-.34-.12l-3.904 4.556a6.4 6.4 0 0 0 4.244 1.564zm-.225-.017-.022-.022-.003-.004a.2.2 0 0 1 .024.051l.003.009s-.004-.018-.004-.057h-6c0 1.681.64 3.205 1.87 4.373zm-.002-.023v-8.137h-6v8.137zm-3-5.137h.047v-6h-.047zm3.047-3c0-1.226.233-2.416.713-3.59l-5.555-2.268a15.4 15.4 0 0 0-1.158 5.858zM97.97 49.77l-.102 2.998.05.002h.052zm-6.22-1.918-1.965 2.267.015.013.014.012zm-3.04-4.069-2.778 1.134.005.01.004.01zm-.047-9.306-2.777-1.134-.006.015-.006.015 2.79 1.104Zm3.04-4.07L93.64 32.7l.004-.004-1.94-2.288Zm5.425-1.87v-3h-.043zm19.97.889-2.121 2.121.056.056.058.053zm0 4.209 2.063 2.178.003-.003zm-21.513 1.543-1.985-2.25-.034.03-.033.032zm-1.123 1.824-2.846-.949-.018.055-.016.054zm0 4.49-2.88.84.016.054.018.054zm1.123 1.824-2.052 2.188.07.066.075.062zm1.824.701-.136 2.997.068.003h.068zm19.689.842-2.063 2.178.028.026.028.026zm0 4.069-2.007-2.23-.028.026-.028.026zm-.421-8.325-1.907-2.316-.029.025-.029.024zm-18.894 0-1.976 2.258.042.036.042.035zm0-3.04-1.892-2.328-.042.035-.041.036zm18.941.047-1.976 2.258.042.036.042.034zm-18.652 9.162c-2.39-.082-3.698-.63-4.386-1.212l-3.872 4.584c2.118 1.788 4.956 2.518 8.054 2.624zm-4.357-1.187c-1.104-.956-1.815-1.945-2.236-2.955l-5.538 2.307c.826 1.983 2.142 3.707 3.844 5.182zm-2.227-2.935c-.486-1.19-.713-2.349-.713-3.496h-6c0 1.97.396 3.897 1.157 5.763zm-.713-3.496c0-1.247.225-2.43.678-3.573l-5.58-2.208a15.6 15.6 0 0 0-1.098 5.78zm.666-3.544c.42-1.03 1.122-2.002 2.198-2.91l-3.871-4.584c-1.731 1.461-3.056 3.202-3.882 5.227zm2.202-2.914c.82-.695 1.924-1.136 3.528-1.16l-.086-5.998c-2.76.039-5.274.845-7.322 2.582zm3.485-1.159H114.9v-6H97.129v6Zm17.772 0q.071.002.084.006.012.003-.004-.002l-.023-.012c-.004-.003.003 0 .02.018l4.242-4.242c-1.18-1.181-2.688-1.768-4.319-1.768zm.191.119q.031.03.016.014a.5.5 0 0 1-.069-.16q-.006-.04-.005-.026h6c0-1.695-.697-3.18-1.928-4.288zm-.058-.172v.022-.003l.005-.02.01-.026.012-.023.006-.01c.001-.002-.007.01-.034.036l4.132 4.35c1.205-1.145 1.869-2.642 1.869-4.326zm.002-.027-.016.014.012-.006q.007-.003-.019.004a1 1 0 0 1-.112.008v6c1.582 0 3.07-.536 4.261-1.664zm-.135.02H97.41v6h17.49zm-17.491 0a5.68 5.68 0 0 0-3.809 1.452l3.97 4.499q.018-.014.001-.003a.4.4 0 0 1-.129.048q-.032.005-.033.004zm-3.876 1.513c-.915.857-1.534 1.916-1.917 3.063l5.692 1.898c.117-.349.246-.507.329-.584zm-1.95 3.172a10.8 10.8 0 0 0-.448 3.038h6c0-.409.062-.859.208-1.358zm-.448 3.038q0 1.597.448 3.132l5.76-1.68a5.1 5.1 0 0 1-.208-1.452zm.481 3.24c.383 1.149 1.002 2.207 1.917 3.064l4.104-4.377c-.083-.078-.212-.235-.329-.584zm2.062 3.192a6 6 0 0 0 3.595 1.382l.272-5.994-.034-.003.004.002.005.001-.028-.02zm3.73 1.385H114.9v-6H97.41v6Zm17.492 0q.085.002.112.008t.019.004l-.012-.006c-.003-.002.002 0 .016.014l4.126-4.356c-1.191-1.128-2.679-1.664-4.261-1.664zm.191.072c.052.047.024.036-.012-.041a.6.6 0 0 1-.046-.178h6c0-1.7-.727-3.16-1.928-4.24zm-.058-.219q-.001.014.005-.027a.5.5 0 0 1 .069-.16l-.016.015 4.014 4.46c1.231-1.108 1.928-2.594 1.928-4.288zm.002-.12-.016.014.012-.006q.007-.003-.019.004a1 1 0 0 1-.112.008v6c1.582 0 3.07-.536 4.261-1.664zm-.135.02H97.97v6h16.93zm-.428-7.71c0-.17.043-.366.135-.544.085-.166.171-.235.163-.228l3.814 4.631c1.099-.905 1.888-2.222 1.888-3.86zm.24-.724a.7.7 0 0 1 .199-.115c.058-.02.064-.01-.011-.01v6c1.317 0 2.644-.389 3.742-1.34zm.188-.125H99.608v6H114.9zm-15.293 0c-.074 0-.081-.01-.045.002a.4.4 0 0 1 .113.062l-3.784 4.657c1.096.89 2.394 1.28 3.716 1.28v-6Zm.151.135a.8.8 0 0 1 .163.235c.081.166.114.339.114.479h-6c0 1.566.71 2.87 1.772 3.801zm.277.714c0 .182-.045.377-.13.546-.079.159-.157.224-.147.215l-3.95-4.515c-1.02.892-1.773 2.17-1.773 3.754zm-.36.832a.4.4 0 0 1-.113.061c-.036.012-.03.002.045.002v-6c-1.322 0-2.62.39-3.716 1.28zm-.068.063H114.9v-6H99.608v6Zm15.293 0c.051 0 .035.007-.02-.012a.5.5 0 0 1-.132-.075l3.951-4.516c-1.092-.955-2.42-1.397-3.799-1.397zm-.068-.017a.9.9 0 0 1-.213-.285 1.3 1.3 0 0 1-.147-.593h6c0-1.603-.771-2.896-1.856-3.778l-3.784 4.657Zm31.61 7.353h-3v.15l.015.149zm-1.216-12.487.115-2.998-.057-.002h-.058zm-16.369 0v-3h-.079l-.078.004zm-1.543.795 2.193 2.047.033-.035.032-.036zm-.982 1.684-2.846-.949-.015.043-.013.044zm0 3.835-2.885.824.024.084.029.083zm.982 1.683-2.258 1.976.032.036.033.035zm15.714 1.637-2.175 2.066.053.056.056.053zm0 4.396-2.066-2.175-.056.053-.053.056zm-13.984.936-.042 3h.042zm-5.425-1.824-1.964 2.267.026.023.028.023zm-3.04-4.069-2.797 1.085.014.034.014.035zm.047-9.307 2.769 1.154.005-.01.004-.01zm3.04-4.069 1.936 2.293.014-.013.015-.012zm6.22-1.964v-3h-.051l-.051.002zm21.888.889-2.067 2.175.03.028.03.027zm.982 2.151h3v-.054l-.002-.053zm-.982 17.912 2.006 2.23.006-.005zm-2.245.842-.249 2.99.124.01h.125zm-.087-3.04V36.02h-6v11.271zm0-11.271c0-.892-.239-2.066-1.183-3.01-.923-.924-2.071-1.171-2.918-1.204l-.23 5.996c-.037-.002-.576-.03-1.094-.55-.539-.538-.575-1.12-.575-1.232zm-4.216-4.216h-16.369v6h16.369zm-16.526.004c-1.501.08-2.743.786-3.644 1.816l4.516 3.95c.005-.006-.048.056-.171.12a1 1 0 0 1-.386.106zm-3.579 1.744a7.5 7.5 0 0 0-1.635 2.782l5.692 1.897c.093-.278.209-.456.329-.585zm-1.663 2.869a9.7 9.7 0 0 0-.407 2.78h6c0-.365.052-.714.154-1.056zm-.407 2.78c0 .926.14 1.843.396 2.74l5.769-1.647a4 4 0 0 1-.165-1.094zm.449 2.908a8.1 8.1 0 0 0 1.556 2.668l4.516-3.951a2.1 2.1 0 0 1-.409-.7zm1.621 2.74c.953 1.02 2.241 1.654 3.736 1.654v-6c.111 0 .26.025.412.093a.8.8 0 0 1 .238.158zm3.736 1.654h11.973v-6h-11.973zm11.973 0q.057.001.056.003l-.007-.002a.2.2 0 0 1-.04-.017l-.012-.007.004.003.022.022 4.35-4.133c-1.168-1.23-2.692-1.87-4.373-1.87zm.132.11.024.026-.007-.012-.01-.02-.007-.02-.002-.007s.003.017.003.056h6c0-1.681-.639-3.205-1.869-4.373zm.001.023q-.001.059-.003.057l.002-.008.007-.02.01-.02.007-.011-.003.003-.021.022 4.132 4.35c1.23-1.168 1.869-2.691 1.869-4.373zm-.11.132-.022.022-.004.003.012-.008.04-.017.007-.002s-.017.004-.056.004v6c1.681 0 3.205-.64 4.373-1.87zm-.023.002h-11.786v6h11.786zm-11.743 0c-1.623-.023-2.737-.46-3.557-1.137l-3.821 4.626c2.048 1.692 4.551 2.471 7.293 2.51zm-3.503-1.091c-1.103-.957-1.815-1.946-2.235-2.956l-5.539 2.308c.827 1.983 2.142 3.706 3.845 5.182zm-2.207-2.887a10 10 0 0 1-.686-3.639h-6c0 1.997.366 3.939 1.091 5.809zm-.686-3.639c0-1.146.227-2.283.704-3.429l-5.538-2.308a14.8 14.8 0 0 0-1.166 5.738h6Zm.713-3.45c.42-1.03 1.122-2.001 2.198-2.91l-3.871-4.584c-1.731 1.462-3.056 3.203-3.882 5.228l5.555 2.267Zm2.227-2.934c.687-.596 1.983-1.153 4.357-1.233l-.204-5.997c-3.113.106-5.963.859-8.083 2.695zm4.255-1.232h19.643v-6h-19.643zm19.643 0a.5.5 0 0 1 .111.012.4.4 0 0 1 .067.052l4.133-4.35a6.14 6.14 0 0 0-4.311-1.714zm.238.119c.016.014.017.018.012.01l-.011-.015-.01-.02-.007-.017-.001-.003q.003.006.008.073l5.996-.214c-.059-1.648-.718-3.144-1.974-4.274zm-.011-.079v15.714h6V31.577zm0 15.714-.001.03.005-.02.011-.03.013-.025.009-.014c.003-.004-.005.008-.032.032l4.025 4.45c1.275-1.154 1.97-2.691 1.97-4.423zm.011-.032c-.047.043-.07.05-.076.053a.5.5 0 0 1-.162.019v6c1.581 0 3.053-.533 4.251-1.612zm.011.082a1.4 1.4 0 0 1-.373-.07c-.026-.01.007-.001.054.046.047.046.057.078.045.05a1.4 1.4 0 0 1-.077-.374l-5.97.597c.142 1.418.644 2.871 1.792 4.002s2.609 1.61 4.031 1.729zm15.392 2.429-.103 2.998.052.002h.051zm-6.22-1.918-1.965 2.267.014.013.015.012zm-3.04-4.069-2.778 1.134.004.01.004.01zm-.047-9.306-2.778-1.134-.006.015-.006.015zm3.04-4.07 1.935 2.293.005-.004-1.94-2.288Zm5.425-1.87v-3h-.043zm19.97.936-2.175 2.066.053.056.055.053zm0 4.443-2.122-2.122zm-21.701 1.636 2.194 2.047.032-.035.032-.036zm-.982 1.684-2.846-.949-.014.043-.013.044zm0 3.835-2.884.824.024.084.029.083zm.982 1.684-2.257 1.975.031.036.033.035zm1.544.748-.158 2.996.079.004h.079zm20.157.935-2.175 2.066.053.056.055.053zm0 4.396-2.067-2.175-.055.053-.053.056zm-19.026-2.063c-2.39-.081-3.698-.63-4.387-1.21l-3.871 4.583c2.117 1.788 4.956 2.518 8.053 2.624l.205-5.996Zm-4.358-1.186c-1.103-.956-1.814-1.945-2.235-2.955l-5.539 2.307c.827 1.983 2.142 3.707 3.845 5.182zm-2.227-2.935c-.485-1.19-.713-2.349-.713-3.496h-6c0 1.97.396 3.897 1.158 5.763zm-.713-3.496a9.6 9.6 0 0 1 .678-3.573l-5.579-2.208a15.6 15.6 0 0 0-1.099 5.78zm.666-3.544c.421-1.03 1.123-2.002 2.198-2.91l-3.871-4.584c-1.73 1.461-3.055 3.202-3.882 5.227zm2.203-2.914c.82-.695 1.923-1.136 3.528-1.16l-.086-5.998c-2.761.039-5.274.845-7.322 2.582zm3.485-1.159H182.1v-6h-17.772zm17.772 0c.039 0 .056.004.056.004l-.008-.002-.019-.008-.032-.017.003.003q.007.005.023.022l4.35-4.133c-1.169-1.23-2.692-1.869-4.373-1.869zm.131.11.022.023.003.003-.007-.012-.01-.02q-.005-.01-.007-.02l-.002-.007s.003.017.003.057h6c0-1.682-.639-3.205-1.869-4.373l-4.133 4.35Zm.002.024a.4.4 0 0 1-.004.064q-.002.007.001-.002.004-.01-.002.001a.4.4 0 0 1-.052.06l4.243 4.243a6.06 6.06 0 0 0 1.814-4.366zm-.057.123-.02.019.023-.012q.017-.005.005-.003l-.084.006v6c1.631 0 3.138-.586 4.319-1.767zm-.076.01h-17.959v6H182.1zm-17.959 0c-1.566 0-2.871.71-3.801 1.773l4.515 3.95a.8.8 0 0 1-.236.164 1.1 1.1 0 0 1-.478.113zm-3.737 1.701a7.5 7.5 0 0 0-1.635 2.782l5.692 1.898c.093-.28.21-.457.33-.586zm-1.662 2.869a9.5 9.5 0 0 0-.407 2.733h6c0-.32.047-.653.154-1.009zm-.407 2.733c0 .944.135 1.876.396 2.788l5.769-1.648a4.1 4.1 0 0 1-.165-1.14zm.449 2.955a8.1 8.1 0 0 0 1.556 2.668l4.515-3.95a2.1 2.1 0 0 1-.408-.7zm1.62 2.74c.921.986 2.147 1.621 3.579 1.697l.315-5.992a.86.86 0 0 1 .493.2zm3.737 1.7H182.1v-6h-17.959zm17.959 0 .048.002-.039-.017-.012-.007.003.003q.007.004.023.022l4.35-4.133c-1.169-1.23-2.692-1.87-4.373-1.87zm.131.111q.018.015.022.023l.003.003-.007-.012-.01-.02-.007-.02-.002-.007s.003.017.003.056h6c0-1.681-.639-3.205-1.869-4.373zm.002.023q-.001.059-.003.057l.002-.008.007-.02.01-.02.007-.011-.003.003-.022.022 4.133 4.35c1.23-1.168 1.869-2.691 1.869-4.373zm-.11.132-.023.022-.003.003.012-.008.039-.017.008-.002s-.017.004-.056.004v6c1.681 0 3.204-.64 4.373-1.87zm-.023.002h-16.93v6h16.93z" mask="url(#a)"/></svg>